# File created by Blade
# Date/Time:  Wed Jan 21 15:15:22 2015
# Frame Rate: 120.000 fps
#------------------------------------------------------
:FULLY-SPECIFIED
:DEGREES
357
root 18.535509 35.595909 -21.768275 164.039794 -88.868936 -161.088367
Spine -3.494353 3.560859 -5.158843
Head 12.585042 -3.188183 7.665361
LeftShoulder -10.134687 -21.963309 -0.846481
LeftArm -20.395591 5.477590 -70.392099
LeftForeArm -0.342733 0.000000 7.906986
LeftHand -2.087434 0.000000 -2.105481
LeftHandThumb1 -26.253704 0.000000 33.147579
RightShoulder -8.540418 -13.312327 10.714486
RightArm 11.011521 -1.639039 69.707759
RightForeArm -25.293411 -0.000000 18.342077
RightHand -2.053473 -0.000000 4.024004
RightHandThumb1 -24.326973 -0.000000 -32.862282
LeftUpLeg -4.988628 6.647285 -4.832273
LeftLeg 6.142639 -0.000000 -0.000000
LeftFoot -22.986242 25.141649 -10.287005
LeftToeBase 25.482627 -0.000000 -0.000000
RightUpLeg -3.151024 -4.986526 3.418120
RightLeg 9.078936 -0.000000 -0.000000
RightFoot -27.400470 -27.105500 16.252084
RightToeBase 22.918672 -0.000000 -0.000000
358
root 18.522551 35.588583 -21.693288 157.825505 -88.924183 -154.735980
Spine -3.777390 3.183076 -4.986802
Head 12.616942 -3.072709 7.705740
LeftShoulder -10.046530 -21.997844 -0.874992
LeftArm -20.343452 5.510523 -70.387796
LeftForeArm -0.361143 0.000000 8.020273
LeftHand -2.023727 0.000000 -2.001280
LeftHandThumb1 -26.253704 0.000000 33.147579
RightShoulder -8.616706 -13.342214 10.894325
RightArm 11.012262 -1.514149 69.501334
RightForeArm -25.210693 -0.000000 18.284682
RightHand -1.887833 -0.000000 4.168877
RightHandThumb1 -24.326973 -0.000000 -32.862282
LeftUpLeg -4.657250 6.755433 -4.885020
LeftLeg 5.247377 -0.000000 -0.000000
LeftFoot -22.613915 25.153068 -9.620152
LeftToeBase 25.724887 -0.000000 -0.000000
RightUpLeg -3.301726 -5.155648 3.399426
RightLeg 9.166831 -0.000000 -0.000000
RightFoot -27.478734 -26.969658 16.318682
RightToeBase 22.910659 -0.000000 -0.000000
359
root 18.517243 35.587657 -21.617841 153.650189 -89.009564 -150.376576
Spine -4.077836 2.818923 -4.922075
Head 12.579000 -2.994375 7.813931
LeftShoulder -9.958307 -22.011141 -0.903821
LeftArm -20.191498 5.708115 -70.398187
LeftForeArm -0.250153 -0.000000 8.121360
LeftHand -1.996946 -0.000000 -2.196043
LeftHandThumb1 -26.253704 0.000000 33.147579
RightShoulder -8.745413 -13.330554 11.191367
RightArm 10.984942 -1.354263 69.241343
RightForeArm -25.302356 -0.000000 18.325989
RightHand -1.912250 0.000000 4.213095
RightHandThumb1 -24.326973 -0.000000 -32.862282
LeftUpLeg -4.553892 6.928040 -5.010038
LeftLeg 4.653198 -0.000000 -0.000000
LeftFoot -22.284971 25.015505 -9.225592
LeftToeBase 25.786058 -0.000000 -0.000000
RightUpLeg -3.506041 -5.258674 3.325823
RightLeg 9.252879 -0.000000 -0.000000
RightFoot -27.557647 -26.876780 16.453901
RightToeBase 22.746473 -0.000000 -0.000000
360
root 18.507943 35.591460 -21.542882 152.250217 -89.101693 -148.872570
Spine -4.264292 2.465717 -4.963026
Head 12.488437 -2.958567 8.009773
LeftShoulder -9.877965 -22.079488 -0.882456
LeftArm -20.039942 5.978547 -70.426250
LeftForeArm -0.305298 -0.000000 8.195108
LeftHand -1.976658 -0.000000 -2.243272
LeftHandThumb1 -26.253704 0.000000 33.147579
RightShoulder -8.868933 -13.333093 11.582117
RightArm 11.052009 -1.133993 68.935897
RightForeArm -25.254541 -0.000000 18.299577
RightHand -1.892137 -0.000000 4.261596
RightHandThumb1 -24.326973 -0.000000 -32.862282
LeftUpLeg -4.391991 6.964691 -5.167716
LeftLeg 4.116866 -0.000000 -0.000000
LeftFoot -22.005221 24.985873 -9.140562
LeftToeBase 25.815442 -0.000000 -0.000000
RightUpLeg -3.618766 -5.394993 3.187731
RightLeg 9.303932 -0.000000 -0.000000
RightFoot -27.605546 -26.743870 16.566688
RightToeBase 22.631699 -0.000000 -0.000000
361
root 18.511616 35.598013 -21.473367 145.181960 -89.274521 -141.532533
Spine -4.640278 2.032592 -4.999876
Head 12.454268 -2.966813 8.174956
LeftShoulder -9.805272 -22.038105 -0.834889
LeftArm -19.765209 6.307069 -70.490791
LeftForeArm -0.396929 -0.000000 8.206383
LeftHand -1.856018 -0.000000 -2.290566
LeftHandThumb1 -26.253704 0.000000 33.147579
RightShoulder -9.062801 -13.286201 11.945258
RightArm 11.095560 -0.738699 68.727852
RightForeArm -25.580979 -0.000000 18.160821
RightHand -1.739257 0.000000 4.627266
RightHandThumb1 -24.326973 -0.000000 -32.862282
LeftUpLeg -4.495526 6.728403 -5.301208
LeftLeg 3.762531 -0.000000 -0.000000
LeftFoot -21.773493 24.985429 -9.137581
LeftToeBase 25.833609 -0.000000 -0.000000
RightUpLeg -3.936882 -5.536116 3.097353
RightLeg 9.416035 -0.000000 -0.000000
RightFoot -27.677343 -26.678835 16.730793
RightToeBase 22.585158 -0.000000 -0.000000
362
root 18.498525 35.604696 -21.411639 128.264174 -89.419600 -124.537982
Spine -4.781184 1.625823 -5.026712
Head 12.379475 -3.000235 8.503642
LeftShoulder -9.655851 -22.122838 -0.722062
LeftArm -19.610484 6.606099 -70.593556
LeftForeArm -0.392741 -0.000000 8.249072
LeftHand -1.800364 -0.000000 -2.287098
LeftHandThumb1 -26.253704 0.000000 33.147579
RightShoulder -9.258328 -13.148600 12.341511
RightArm 10.920553 -0.917825 68.419480
RightForeArm -25.421580 -0.000000 18.387578
RightHand -2.024155 -0.000000 4.294976
RightHandThumb1 -24.326973 -0.000000 -32.862282
LeftUpLeg -4.391663 6.469887 -5.345658
LeftLeg 3.461339 -0.000000 -0.000000
LeftFoot -21.594908 24.921833 -9.107082
LeftToeBase 25.824808 -0.000000 -0.000000
RightUpLeg -3.984995 -5.693655 3.041254
RightLeg 9.447420 -0.000000 -0.000000
RightFoot -27.740162 -26.607143 16.959170
RightToeBase 22.334436 -0.000000 -0.000000
